<?xml version="1.0" standalone="no"?><!DOCTYPE svg PUBLIC "-//W3C//DTD SVG 1.1//EN" "http://www.w3.org/Graphics/SVG/1.1/DTD/svg11.dtd"><svg xmlns:xlink="http://www.w3.org/1999/xlink" version="1.1" style="font-family:open sans;font-size:12px;" xmlns="http://www.w3.org/2000/svg" width="1040" height="410"><desc>Created with Highcharts 4.1.5</desc><defs><clipPath id="highcharts-64"><rect x="0" y="0" width="865" height="215"></rect></clipPath></defs><rect x="0" y="0" width="1040" height="410" strokeWidth="0" fill="#FFFFFF" class=" highcharts-background"></rect><g class="highcharts-grid" ></g><g class="highcharts-grid" ></g><g class="highcharts-grid" ></g><g class="highcharts-grid" ><path fill="none" d="M 80 341.5 L 945 341.5" stroke="#D8D8D8" stroke-width="1"  opacity="1"></path><path fill="none" d="M 80 282.5 L 945 282.5" stroke="#D8D8D8" stroke-width="1"  opacity="1"></path><path fill="none" d="M 80 224.5 L 945 224.5" stroke="#D8D8D8" stroke-width="1"  opacity="1"></path><path fill="none" d="M 80 165.5 L 945 165.5" stroke="#D8D8D8" stroke-width="1"  opacity="1"></path></g><g class="highcharts-axis" ><path fill="none" d="M 166.5 341 L 166.5 351" stroke="#C0D0E0" stroke-width="1" opacity="1"></path><path fill="none" d="M 252.5 341 L 252.5 351" stroke="#C0D0E0" stroke-width="1" opacity="1"></path><path fill="none" d="M 339.5 341 L 339.5 351" stroke="#C0D0E0" stroke-width="1" opacity="1"></path><path fill="none" d="M 425.5 341 L 425.5 351" stroke="#C0D0E0" stroke-width="1" opacity="1"></path><path fill="none" d="M 512.5 341 L 512.5 351" stroke="#C0D0E0" stroke-width="1" opacity="1"></path><path fill="none" d="M 598.5 341 L 598.5 351" stroke="#C0D0E0" stroke-width="1" opacity="1"></path><path fill="none" d="M 685.5 341 L 685.5 351" stroke="#C0D0E0" stroke-width="1" opacity="1"></path><path fill="none" d="M 771.5 341 L 771.5 351" stroke="#C0D0E0" stroke-width="1" opacity="1"></path><path fill="none" d="M 858.5 341 L 858.5 351" stroke="#C0D0E0" stroke-width="1" opacity="1"></path><path fill="none" d="M 945.5 341 L 945.5 351" stroke="#C0D0E0" stroke-width="1" opacity="1"></path><path fill="none" d="M 79.5 341 L 79.5 351" stroke="#C0D0E0" stroke-width="1" opacity="1"></path><path fill="none" d="M 80 341.5 L 945 341.5" stroke="#C0D0E0" stroke-width="1"  visibility="visible"></path></g><g class="highcharts-axis" ><path fill="none" d="M 166.5 126 L 166.5 116" stroke="#C0D0E0" stroke-width="1" opacity="1"></path><path fill="none" d="M 252.5 126 L 252.5 116" stroke="#C0D0E0" stroke-width="1" opacity="1"></path><path fill="none" d="M 339.5 126 L 339.5 116" stroke="#C0D0E0" stroke-width="1" opacity="1"></path><path fill="none" d="M 425.5 126 L 425.5 116" stroke="#C0D0E0" stroke-width="1" opacity="1"></path><path fill="none" d="M 512.5 126 L 512.5 116" stroke="#C0D0E0" stroke-width="1" opacity="1"></path><path fill="none" d="M 598.5 126 L 598.5 116" stroke="#C0D0E0" stroke-width="1" opacity="1"></path><path fill="none" d="M 685.5 126 L 685.5 116" stroke="#C0D0E0" stroke-width="1" opacity="1"></path><path fill="none" d="M 771.5 126 L 771.5 116" stroke="#C0D0E0" stroke-width="1" opacity="1"></path><path fill="none" d="M 858.5 126 L 858.5 116" stroke="#C0D0E0" stroke-width="1" opacity="1"></path><path fill="none" d="M 945.5 126 L 945.5 116" stroke="#C0D0E0" stroke-width="1" opacity="1"></path><path fill="none" d="M 79.5 126 L 79.5 116" stroke="#C0D0E0" stroke-width="1" opacity="1"></path><path fill="none" d="M 80 125.5 L 945 125.5" stroke="#C0D0E0" stroke-width="1"  visibility="visible"></path></g><g class="highcharts-axis" ><text x="1018.3499984741211"  text-anchor="middle" transform="translate(0,0) rotate(90 1018.3499984741211 233.5)" class=" highcharts-yaxis-title" style="color:#000000;fill:#000000;" visibility="visible" y="233.5"><tspan>Bedsheet tanglings</tspan></text></g><g class="highcharts-axis" ><text x="21.916667938232422"  text-anchor="middle" transform="translate(0,0) rotate(270 21.916667938232422 233.5)" class=" highcharts-yaxis-title" style="color:#ba0f27;fill:#ba0f27;" visibility="visible" y="233.5"><tspan>Cheese consumed</tspan></text></g><g class="highcharts-series-group" ><g class="highcharts-series" visibility="visible"  transform="translate(80,126) scale(1 1)" clip-path="url(#highcharts-64)"><path fill="none" d="M 43.25 175.99285714285713 C 43.25 175.99285714285713 95.15 147.55142857142857 129.75 136.37142857142857 C 164.35 125.19142857142857 181.65 120.09285714285714 216.25 120.09285714285714 C 250.85 120.09285714285714 268.15 123.77857142857142 302.75 123.77857142857142 C 337.35 123.77857142857142 354.65 93.37142857142857 389.25 93.37142857142857 C 423.85 93.37142857142857 441.15 100.43571428571428 475.75 100.43571428571428 C 510.35 100.43571428571428 527.65 83.72714285714284 562.25 73.40714285714284 C 596.85 63.087142857142844 614.15 57.92714285714286 648.75 48.83571428571429 C 683.35 39.744285714285716 700.65 27.94999999999999 735.25 27.94999999999999 C 769.85 27.94999999999999 821.75 56.207142857142856 821.75 56.207142857142856" stroke="#000000" stroke-width="2"  stroke-linejoin="round" stroke-linecap="round"></path></g><g class="highcharts-markers" visibility="visible"  transform="translate(80,126) scale(1 1)" clip-path="none"><path fill="#000000" d="M 821 52.207142857142856 C 826.328 52.207142857142856 826.328 60.207142857142856 821 60.207142857142856 C 815.672 60.207142857142856 815.672 52.207142857142856 821 52.207142857142856 Z"></path><path fill="#000000" d="M 735 23.94999999999999 C 740.328 23.94999999999999 740.328 31.94999999999999 735 31.94999999999999 C 729.672 31.94999999999999 729.672 23.94999999999999 735 23.94999999999999 Z"></path><path fill="#000000" d="M 648 44.83571428571429 C 653.328 44.83571428571429 653.328 52.83571428571429 648 52.83571428571429 C 642.672 52.83571428571429 642.672 44.83571428571429 648 44.83571428571429 Z"></path><path fill="#000000" d="M 562 69.40714285714284 C 567.328 69.40714285714284 567.328 77.40714285714284 562 77.40714285714284 C 556.672 77.40714285714284 556.672 69.40714285714284 562 69.40714285714284 Z"></path><path fill="#000000" d="M 475 96.43571428571428 C 480.328 96.43571428571428 480.328 104.43571428571428 475 104.43571428571428 C 469.672 104.43571428571428 469.672 96.43571428571428 475 96.43571428571428 Z"></path><path fill="#000000" d="M 389 89.37142857142857 C 394.328 89.37142857142857 394.328 97.37142857142857 389 97.37142857142857 C 383.672 97.37142857142857 383.672 89.37142857142857 389 89.37142857142857 Z"></path><path fill="#000000" d="M 302 119.77857142857142 C 307.328 119.77857142857142 307.328 127.77857142857142 302 127.77857142857142 C 296.672 127.77857142857142 296.672 119.77857142857142 302 119.77857142857142 Z"></path><path fill="#000000" d="M 216 116.09285714285714 C 221.328 116.09285714285714 221.328 124.09285714285714 216 124.09285714285714 C 210.672 124.09285714285714 210.672 116.09285714285714 216 116.09285714285714 Z"></path><path fill="#000000" d="M 129 132.37142857142857 C 134.328 132.37142857142857 134.328 140.37142857142857 129 140.37142857142857 C 123.672 140.37142857142857 123.672 132.37142857142857 129 132.37142857142857 Z"></path><path fill="#000000" d="M 43 171.99285714285713 C 48.328 171.99285714285713 48.328 179.99285714285713 43 179.99285714285713 C 37.672 179.99285714285713 37.672 171.99285714285713 43 171.99285714285713 Z"></path></g><g class="highcharts-series" visibility="visible"  transform="translate(80,126) scale(1 1)" clip-path="url(#highcharts-64)"><path fill="none" d="M 43.25 164.18181818181816 C 43.25 164.18181818181816 95.15 157.92727272727265 129.75 152.45454545454538 C 164.35 146.9818181818181 181.65 140.72727272727272 216.25 136.8181818181818 C 250.85 132.90909090909088 268.15 136.8181818181818 302.75 132.90909090909085 C 337.35 128.9999999999999 354.65 114.14545454545448 389.25 105.5454545454545 C 423.85 96.94545454545451 441.15 100.0727272727273 475.75 89.90909090909093 C 510.35 79.74545454545458 527.65 65.67272727272723 562.25 54.72727272727266 C 596.85 43.78181818181809 614.15 35.1818181818181 648.75 35.1818181818181 C 683.35 35.1818181818181 700.65 50.8181818181817 735.25 50.8181818181817 C 769.85 50.8181818181817 821.75 46.90909090909102 821.75 46.90909090909102" stroke="#ba0f27" stroke-width="2"  stroke-linejoin="round" stroke-linecap="round"></path></g><g class="highcharts-markers" visibility="visible"  transform="translate(80,126) scale(1 1)" clip-path="none"><path fill="#ba0f27" d="M 821 42.90909090909102 L 825 46.90909090909102 821 50.90909090909102 817 46.90909090909102 Z"></path><path fill="#ba0f27" d="M 735 46.8181818181817 L 739 50.8181818181817 735 54.8181818181817 731 50.8181818181817 Z"></path><path fill="#ba0f27" d="M 648 31.1818181818181 L 652 35.1818181818181 648 39.1818181818181 644 35.1818181818181 Z"></path><path fill="#ba0f27" d="M 562 50.72727272727266 L 566 54.72727272727266 562 58.72727272727266 558 54.72727272727266 Z"></path><path fill="#ba0f27" d="M 475 85.90909090909093 L 479 89.90909090909093 475 93.90909090909093 471 89.90909090909093 Z"></path><path fill="#ba0f27" d="M 389 101.5454545454545 L 393 105.5454545454545 389 109.5454545454545 385 105.5454545454545 Z"></path><path fill="#ba0f27" d="M 302 128.90909090909085 L 306 132.90909090909085 302 136.90909090909085 298 132.90909090909085 Z"></path><path fill="#ba0f27" d="M 216 132.8181818181818 L 220 136.8181818181818 216 140.8181818181818 212 136.8181818181818 Z"></path><path fill="#ba0f27" d="M 129 148.45454545454538 L 133 152.45454545454538 129 156.45454545454538 125 152.45454545454538 Z"></path><path fill="#ba0f27" d="M 43 160.18181818181816 L 47 164.18181818181816 43 168.18181818181816 39 164.18181818181816 Z"></path></g></g><text x="520" text-anchor="middle" class="highcharts-title"  style="color:#777;font-size:18px;fill:#777;width:976px;" y="24"><tspan style="fill:#ba0f27;font-size:24px;font-weight:bold;font-family: 'lora'">Per capita cheese consumption</tspan><tspan style="font-family: 'lora'" x="520" dy="21"> correlates with </tspan><tspan style="fill:#000000;font-size:24px;font-weight:bold;font-family: 'lora'" x="520" dy="29">Number of people who died by becoming tangled in their bedsheets</tspan></text><g class="highcharts-legend"  transform="translate(387,372)"><g ><g><g class="highcharts-legend-item"  transform="translate(8,3)"><path fill="none" d="M 0 11 L 16 11" stroke="#000000" stroke-width="2"></path><path fill="#000000" d="M 8 7 C 13.328 7 13.328 15 8 15 C 2.6719999999999997 15 2.6719999999999997 7 8 7 Z"></path><text x="21" style="color:#333333;font-size:12px;font-weight:bold;cursor:pointer;fill:#333333;" text-anchor="start"  y="15"><tspan>Bedsheet tanglings</tspan></text></g><g class="highcharts-legend-item"  transform="translate(145.66666412353516,3)"><path fill="none" d="M 0 11 L 16 11" stroke="#ba0f27" stroke-width="2"></path><path fill="#ba0f27" d="M 8 7 L 12 11 8 15 4 11 Z"></path><text x="21" y="15" style="color:#333333;font-size:12px;font-weight:bold;cursor:pointer;fill:#333333;" text-anchor="start" ><tspan>Cheese consumed</tspan></text></g></g></g></g><g class="highcharts-axis-labels highcharts-xaxis-labels" ><text x="123.25" style="color:#000000;cursor:default;font-size:11px;fill:#000000;width:76px;text-overflow:clip;" text-anchor="middle" transform="translate(0,0)" y="360" opacity="1">2000</text><text x="209.75" style="color:#000000;cursor:default;font-size:11px;fill:#000000;width:76px;text-overflow:clip;" text-anchor="middle" transform="translate(0,0)" y="360" opacity="1">2001</text><text x="296.25" style="color:#000000;cursor:default;font-size:11px;fill:#000000;width:76px;text-overflow:clip;" text-anchor="middle" transform="translate(0,0)" y="360" opacity="1">2002</text><text x="382.75" style="color:#000000;cursor:default;font-size:11px;fill:#000000;width:76px;text-overflow:clip;" text-anchor="middle" transform="translate(0,0)" y="360" opacity="1">2003</text><text x="469.25" style="color:#000000;cursor:default;font-size:11px;fill:#000000;width:76px;text-overflow:clip;" text-anchor="middle" transform="translate(0,0)" y="360" opacity="1">2004</text><text x="555.75" style="color:#000000;cursor:default;font-size:11px;fill:#000000;width:76px;text-overflow:clip;" text-anchor="middle" transform="translate(0,0)" y="360" opacity="1">2005</text><text x="642.25" style="color:#000000;cursor:default;font-size:11px;fill:#000000;width:76px;text-overflow:clip;" text-anchor="middle" transform="translate(0,0)" y="360" opacity="1">2006</text><text x="728.75" style="color:#000000;cursor:default;font-size:11px;fill:#000000;width:76px;text-overflow:clip;" text-anchor="middle" transform="translate(0,0)" y="360" opacity="1">2007</text><text x="815.25" style="color:#000000;cursor:default;font-size:11px;fill:#000000;width:76px;text-overflow:clip;" text-anchor="middle" transform="translate(0,0)" y="360" opacity="1">2008</text><text x="901.75" style="color:#000000;cursor:default;font-size:11px;fill:#000000;width:76px;text-overflow:clip;" text-anchor="middle" transform="translate(0,0)" y="360" opacity="1">2009</text></g><g class="highcharts-axis-labels highcharts-xaxis-labels" ><text x="123.25" style="color:#ba0f27;cursor:default;font-size:11px;fill:#ba0f27;width:76px;text-overflow:clip;" text-anchor="middle" transform="translate(0,0)" y="111" opacity="1">2000</text><text x="209.75" style="color:#ba0f27;cursor:default;font-size:11px;fill:#ba0f27;width:76px;text-overflow:clip;" text-anchor="middle" transform="translate(0,0)" y="111" opacity="1">2001</text><text x="296.25" style="color:#ba0f27;cursor:default;font-size:11px;fill:#ba0f27;width:76px;text-overflow:clip;" text-anchor="middle" transform="translate(0,0)" y="111" opacity="1">2002</text><text x="382.75" style="color:#ba0f27;cursor:default;font-size:11px;fill:#ba0f27;width:76px;text-overflow:clip;" text-anchor="middle" transform="translate(0,0)" y="111" opacity="1">2003</text><text x="469.25" style="color:#ba0f27;cursor:default;font-size:11px;fill:#ba0f27;width:76px;text-overflow:clip;" text-anchor="middle" transform="translate(0,0)" y="111" opacity="1">2004</text><text x="555.75" style="color:#ba0f27;cursor:default;font-size:11px;fill:#ba0f27;width:76px;text-overflow:clip;" text-anchor="middle" transform="translate(0,0)" y="111" opacity="1">2005</text><text x="642.25" style="color:#ba0f27;cursor:default;font-size:11px;fill:#ba0f27;width:76px;text-overflow:clip;" text-anchor="middle" transform="translate(0,0)" y="111" opacity="1">2006</text><text x="728.75" style="color:#ba0f27;cursor:default;font-size:11px;fill:#ba0f27;width:76px;text-overflow:clip;" text-anchor="middle" transform="translate(0,0)" y="111" opacity="1">2007</text><text x="815.25" style="color:#ba0f27;cursor:default;font-size:11px;fill:#ba0f27;width:76px;text-overflow:clip;" text-anchor="middle" transform="translate(0,0)" y="111" opacity="1">2008</text><text x="901.75" style="color:#ba0f27;cursor:default;font-size:11px;fill:#ba0f27;width:76px;text-overflow:clip;" text-anchor="middle" transform="translate(0,0)" y="111" opacity="1">2009</text></g><g class="highcharts-axis-labels highcharts-yaxis-labels" ><text x="960" style="color:#000000;cursor:default;font-size:11px;fill:#000000;width:333px;text-overflow:clip;" text-anchor="start" transform="translate(0,0)" y="346" opacity="1"><tspan>200 deaths</tspan></text><text x="960" style="color:#000000;cursor:default;font-size:11px;fill:#000000;width:333px;text-overflow:clip;" text-anchor="start" transform="translate(0,0)" y="285" opacity="1"><tspan>400 deaths</tspan></text><text x="960" style="color:#000000;cursor:default;font-size:11px;fill:#000000;width:333px;text-overflow:clip;" text-anchor="start" transform="translate(0,0)" y="223" opacity="1"><tspan>600 deaths</tspan></text><text x="960" style="color:#000000;cursor:default;font-size:11px;fill:#000000;width:333px;text-overflow:clip;" text-anchor="start" transform="translate(0,0)" y="162" opacity="1"><tspan>800 deaths</tspan></text></g><g class="highcharts-axis-labels highcharts-yaxis-labels" ><text x="65" style="color:#ba0f27;cursor:default;font-size:11px;fill:#ba0f27;width:333px;text-overflow:clip;" text-anchor="end" transform="translate(0,0)" y="346" opacity="1">28.5lbs</text><text x="65" style="color:#ba0f27;cursor:default;font-size:11px;fill:#ba0f27;width:333px;text-overflow:clip;" text-anchor="end" transform="translate(0,0)" y="288" opacity="1">30lbs</text><text x="65" style="color:#ba0f27;cursor:default;font-size:11px;fill:#ba0f27;width:333px;text-overflow:clip;" text-anchor="end" transform="translate(0,0)" y="229" opacity="1">31.5lbs</text><text x="65" style="color:#ba0f27;cursor:default;font-size:11px;fill:#ba0f27;width:333px;text-overflow:clip;" text-anchor="end" transform="translate(0,0)" y="170" opacity="1">33lbs</text></g><g class="highcharts-tooltip"  style="cursor:default;padding:0;white-space:nowrap;" transform="translate(0,-9999)"><path fill="none" d="M 3 0 L 13 0 C 16 0 16 0 16 3 L 16 13 C 16 16 16 16 13 16 L 3 16 C 0 16 0 16 0 13 L 0 3 C 0 0 0 0 3 0"  stroke="black" stroke-opacity="0.049999999999999996" stroke-width="5" transform="translate(1, 1)"></path><path fill="none" d="M 3 0 L 13 0 C 16 0 16 0 16 3 L 16 13 C 16 16 16 16 13 16 L 3 16 C 0 16 0 16 0 13 L 0 3 C 0 0 0 0 3 0"  stroke="black" stroke-opacity="0.09999999999999999" stroke-width="3" transform="translate(1, 1)"></path><path fill="none" d="M 3 0 L 13 0 C 16 0 16 0 16 3 L 16 13 C 16 16 16 16 13 16 L 3 16 C 0 16 0 16 0 13 L 0 3 C 0 0 0 0 3 0"  stroke="black" stroke-opacity="0.15" stroke-width="1" transform="translate(1, 1)"></path><path fill="rgb(249, 249, 249)" fill-opacity=" .85" d="M 3 0 L 13 0 C 16 0 16 0 16 3 L 16 13 C 16 16 16 16 13 16 L 3 16 C 0 16 0 16 0 13 L 0 3 C 0 0 0 0 3 0"></path><text x="8"  style="font-size:12px;color:#333333;fill:#333333;" transform="translate(0,20)"></text></g><text x="1030" text-anchor="end"  style="cursor:pointer;color:#909090;font-size:9px;fill:#909090;" y="405">tylervigen.com</text></svg>