<svg xmlns="http://www.w3.org/2000/svg" id="export" class="graph" preserveAspectRatio="xMidYMid meet" style="position: absolute; margin: 0px;" width="110" height="314"><rect id="background" fill="#fff" pointer-events="all" width="110" height="314"/><g id="origin" transform="translate(5, 5) scale(1)"><g id="clusters" class="clusters"/><g id="edge-paths" class="edge-paths"><defs><marker id="arrowhead-vee" viewBox="0 0 10 10" refX="9" refY="5" markerUnits="strokeWidth" markerWidth="8" markerHeight="6" orient="auto" style="fill: rgb(0, 0, 0);"><path d="M 0 0 L 10 5 L 0 10 L 4 5 z" style="stroke-width: 1; stroke-dasharray: 1, 0;"/></marker></defs><path class="edge-path" d="M50,21.000001907348633L50,22.6666685740153C50,24.333335240681965,50,27.6666685740153,50,31.000001907348633C50,34.33333524068197,50,37.6666685740153,50,39.33333524068197L50,41.00000190734863" marker-end="url(#arrowhead-vee)" id="edge-input" style="stroke: rgb(0, 0, 0); stroke-width: 1px; fill: none;"/><path class="edge-path" d="M50,107.00000190734863L50,108.6666685740153C50,110.33333524068196,50,113.6666685740153,50,117.00000190734863C50,120.33333524068196,50,123.6666685740153,50,125.33333524068196L50,127.00000190734863" marker-end="url(#arrowhead-vee)" id="edge-conv2d" style="stroke: rgb(0, 0, 0); stroke-width: 1px; fill: none;"/><path class="edge-path" d="M50,148.23437881469727L50,149.90104548136392C50,151.5677121480306,50,154.90104548136392,50,158.23437881469727C50,161.5677121480306,50,164.90104548136392,50,166.5677121480306L50,168.23437881469727" marker-end="url(#arrowhead-vee)" id="edge-max_pooling2d" style="stroke: rgb(0, 0, 0); stroke-width: 1px; fill: none;"/><path class="edge-path" d="M50,189.2343807220459L50,190.90104738871256C50,192.56771405537924,50,195.90104738871256,50,199.2343807220459C50,202.56771405537924,50,205.90104738871256,50,207.56771405537924L50,209.2343807220459" marker-end="url(#arrowhead-vee)" id="edge-flatten_1" style="stroke: rgb(0, 0, 0); stroke-width: 1px; fill: none;"/><path class="edge-path" d="M50,262.2343807220459L50,263.9010473887126C50,265.5677140553792,50,268.9010473887126,50,272.2343807220459C50,275.5677140553792,50,278.9010473887126,50,280.5677140553792L50,282.2343807220459" marker-end="url(#arrowhead-vee)" id="edge-dense_3" style="stroke: rgb(0, 0, 0); stroke-width: 1px; fill: none;"/></g><g id="edge-labels" class="edge-labels"/><g id="nodes" class="nodes"><g id="node-conv2d" class="node" transform="translate(50,74.00000190734863)" style="opacity: 1;"><g transform="translate(-50,-33)"><g><g class="node-item node-item-operator node-item-operator-layer" transform="translate(0,0)"><path d="M5,0h90a5,5 0 0 1 5,5v16a0,0 0 0 1 0,0h-100a0,0 0 0 1 0,0v-16a5,5 0 0 1 5,-5z" style="stroke: rgb(0, 0, 0); fill: rgb(51, 85, 136); stroke-width: 0;"/><text x="6" y="15" style="font-family: -apple-system, BlinkMacSystemFont, &quot;Segoe WPC&quot;, &quot;Segoe UI&quot;, Ubuntu, &quot;Droid Sans&quot;, sans-serif; font-size: 11px; text-rendering: geometricprecision; fill: rgb(255, 255, 255);">Conv2D</text><title>conv2d</title></g><g class="node-attribute" transform="translate(0,21)"><path d="M0,0h100a0,0 0 0 1 0,0v40a5,5 0 0 1 -5,5h-90a5,5 0 0 1 -5,-5v-40a0,0 0 0 1 0,0z" style="stroke: rgb(0, 0, 0); fill: rgb(255, 255, 255); stroke-width: 0;"/><text xml:space="preserve" x="6" y="13" style="font-family: -apple-system, BlinkMacSystemFont, &quot;Segoe WPC&quot;, &quot;Segoe UI&quot;, Ubuntu, &quot;Droid Sans&quot;, sans-serif; font-size: 9px; font-weight: normal; text-rendering: geometricprecision;"><tspan>filters</tspan><tspan> = 1</tspan></text><text xml:space="preserve" x="6" y="26" style="font-family: -apple-system, BlinkMacSystemFont, &quot;Segoe WPC&quot;, &quot;Segoe UI&quot;, Ubuntu, &quot;Droid Sans&quot;, sans-serif; font-size: 9px; font-weight: normal; text-rendering: geometricprecision;"><tspan>kernel_size</tspan><tspan> = 3, 3</tspan></text><text xml:space="preserve" x="6" y="39" style="font-family: -apple-system, BlinkMacSystemFont, &quot;Segoe WPC&quot;, &quot;Segoe UI&quot;, Ubuntu, &quot;Droid Sans&quot;, sans-serif; font-size: 9px; font-weight: normal; text-rendering: geometricprecision;"><tspan>activation</tspan><tspan> = relu</tspan></text><line class="node" x1="0" x2="100" y1="0" y2="0" style="stroke: rgb(51, 51, 51); fill: none; stroke-width: 1px;"/></g><path class="node border" d="M5,0h90a5,5 0 0 1 5,5v56a5,5 0 0 1 -5,5h-90a5,5 0 0 1 -5,-5v-56a5,5 0 0 1 5,-5z" style="stroke: rgb(51, 51, 51); fill: none; stroke-width: 1px;"/></g></g></g><g id="node-max_pooling2d" class="node" transform="translate(50,137.61719036102295)" style="opacity: 1;"><g transform="translate(-42.937503814697266,-10.617188453674316)"><g><g class="node-item node-item-operator node-item-operator-pool" transform="translate(0,0)"><path d="M5,0h75.875a5,5 0 0 1 5,5v11.234375a5,5 0 0 1 -5,5h-75.875a5,5 0 0 1 -5,-5v-11.234375a5,5 0 0 1 5,-5z" style="stroke: rgb(0, 0, 0); fill: rgb(51, 85, 51); stroke-width: 0;"/><text x="6" y="15" style="font-family: -apple-system, BlinkMacSystemFont, &quot;Segoe WPC&quot;, &quot;Segoe UI&quot;, Ubuntu, &quot;Droid Sans&quot;, sans-serif; font-size: 11px; text-rendering: geometricprecision; fill: rgb(255, 255, 255);">MaxPooling2D</text><title>max_pooling2d</title></g><path class="node border" d="M5,0h75.875a5,5 0 0 1 5,5v11.234375a5,5 0 0 1 -5,5h-75.875a5,5 0 0 1 -5,-5v-11.234375a5,5 0 0 1 5,-5z" style="stroke: rgb(51, 51, 51); fill: none; stroke-width: 1px;"/></g></g></g><g id="node-flatten_1" class="node" transform="translate(50,178.73437976837158)" style="opacity: 1;"><g transform="translate(-24.109375,-10.500000953674316)"><g><g class="node-item node-item-operator node-item-operator-shape" transform="translate(0,0)"><path d="M5,0h38.21875a5,5 0 0 1 5,5v11a5,5 0 0 1 -5,5h-38.21875a5,5 0 0 1 -5,-5v-11a5,5 0 0 1 5,-5z" style="stroke: rgb(0, 0, 0); fill: rgb(108, 79, 71); stroke-width: 0;"/><text x="6" y="15" style="font-family: -apple-system, BlinkMacSystemFont, &quot;Segoe WPC&quot;, &quot;Segoe UI&quot;, Ubuntu, &quot;Droid Sans&quot;, sans-serif; font-size: 11px; text-rendering: geometricprecision; fill: rgb(255, 255, 255);">Flatten</text><title>flatten_1</title></g><path class="node border" d="M5,0h38.21875a5,5 0 0 1 5,5v11a5,5 0 0 1 -5,5h-38.21875a5,5 0 0 1 -5,-5v-11a5,5 0 0 1 5,-5z" style="stroke: rgb(51, 51, 51); fill: none; stroke-width: 1px;"/></g></g></g><g id="node-dense_3" class="node" transform="translate(50,235.7343807220459)" style="opacity: 1;"><g transform="translate(-50,-26.5)"><g><g class="node-item node-item-operator node-item-operator-layer" transform="translate(0,0)"><path d="M5,0h90a5,5 0 0 1 5,5v16a0,0 0 0 1 0,0h-100a0,0 0 0 1 0,0v-16a5,5 0 0 1 5,-5z" style="stroke: rgb(0, 0, 0); fill: rgb(51, 85, 136); stroke-width: 0;"/><text x="6" y="15" style="font-family: -apple-system, BlinkMacSystemFont, &quot;Segoe WPC&quot;, &quot;Segoe UI&quot;, Ubuntu, &quot;Droid Sans&quot;, sans-serif; font-size: 11px; text-rendering: geometricprecision; fill: rgb(255, 255, 255);">Dense</text><title>dense_3</title></g><g class="node-attribute" transform="translate(0,21)"><path d="M0,0h100a0,0 0 0 1 0,0v27a5,5 0 0 1 -5,5h-90a5,5 0 0 1 -5,-5v-27a0,0 0 0 1 0,0z" style="stroke: rgb(0, 0, 0); fill: rgb(255, 255, 255); stroke-width: 0;"/><text xml:space="preserve" x="6" y="13" style="font-family: -apple-system, BlinkMacSystemFont, &quot;Segoe WPC&quot;, &quot;Segoe UI&quot;, Ubuntu, &quot;Droid Sans&quot;, sans-serif; font-size: 9px; font-weight: normal; text-rendering: geometricprecision;"><tspan>units</tspan><tspan> = 10</tspan></text><text xml:space="preserve" x="6" y="26" style="font-family: -apple-system, BlinkMacSystemFont, &quot;Segoe WPC&quot;, &quot;Segoe UI&quot;, Ubuntu, &quot;Droid Sans&quot;, sans-serif; font-size: 9px; font-weight: normal; text-rendering: geometricprecision;"><tspan>activation</tspan><tspan> = softmax</tspan></text><line class="node" x1="0" x2="100" y1="0" y2="0" style="stroke: rgb(51, 51, 51); fill: none; stroke-width: 1px;"/></g><path class="node border" d="M5,0h90a5,5 0 0 1 5,5v43a5,5 0 0 1 -5,5h-90a5,5 0 0 1 -5,-5v-43a5,5 0 0 1 5,-5z" style="stroke: rgb(51, 51, 51); fill: none; stroke-width: 1px;"/></g></g></g><g class="node graph-input" transform="translate(50,10.500000953674316)" style="opacity: 1;"><g transform="translate(-19.578125,-10.500000953674316)"><g><g class="node-item graph-item-input" transform="translate(0,0)"><path d="M5,0h29.15625a5,5 0 0 1 5,5v11a5,5 0 0 1 -5,5h-29.15625a5,5 0 0 1 -5,-5v-11a5,5 0 0 1 5,-5z" style="stroke: rgb(0, 0, 0); fill: rgb(238, 238, 238); stroke-width: 0;"/><text x="6" y="15" style="font-family: -apple-system, BlinkMacSystemFont, &quot;Segoe WPC&quot;, &quot;Segoe UI&quot;, Ubuntu, &quot;Droid Sans&quot;, sans-serif; font-size: 11px; text-rendering: geometricprecision;">input</text><title>float32[]</title></g><path class="node border" d="M5,0h29.15625a5,5 0 0 1 5,5v11a5,5 0 0 1 -5,5h-29.15625a5,5 0 0 1 -5,-5v-11a5,5 0 0 1 5,-5z" style="stroke: rgb(51, 51, 51); fill: none; stroke-width: 1px;"/></g></g></g><g class="node" transform="translate(50,292.7343816757202)" style="opacity: 1;"><g transform="translate(-27.5703125,-10.500000953674316)"><g><g class="node-item graph-item-output" transform="translate(0,0)"><path d="M5,0h45.140625a5,5 0 0 1 5,5v11a5,5 0 0 1 -5,5h-45.140625a5,5 0 0 1 -5,-5v-11a5,5 0 0 1 5,-5z" style="stroke: rgb(0, 0, 0); fill: rgb(238, 238, 238); stroke-width: 0;"/><text x="6" y="15" style="font-family: -apple-system, BlinkMacSystemFont, &quot;Segoe WPC&quot;, &quot;Segoe UI&quot;, Ubuntu, &quot;Droid Sans&quot;, sans-serif; font-size: 11px; text-rendering: geometricprecision;">dense_3</text></g><path class="node border" d="M5,0h45.140625a5,5 0 0 1 5,5v11a5,5 0 0 1 -5,5h-45.140625a5,5 0 0 1 -5,-5v-11a5,5 0 0 1 5,-5z" style="stroke: rgb(51, 51, 51); fill: none; stroke-width: 1px;"/></g></g></g></g></g></svg>