<svg xmlns="http://www.w3.org/2000/svg" id="export" class="graph" preserveAspectRatio="xMidYMid meet" style="position: absolute; margin: 0px;" width="110" height="371"><rect id="background" fill="#fff" pointer-events="all" width="110" height="371"/><g id="origin" transform="translate(5, 5) scale(1)"><g id="clusters" class="clusters"/><g id="edge-paths" class="edge-paths"><defs><marker id="arrowhead-vee" viewBox="0 0 10 10" refX="9" refY="5" markerUnits="strokeWidth" markerWidth="8" markerHeight="6" orient="auto" style="fill: rgb(0, 0, 0);"><path d="M 0 0 L 10 5 L 0 10 L 4 5 z" style="stroke-width: 1; stroke-dasharray: 1, 0;"/></marker></defs><path class="edge-path" d="M50,21.000001907348633L50,22.6666685740153C50,24.333335240681965,50,27.6666685740153,50,31.000001907348633C50,34.33333524068197,50,37.6666685740153,50,39.33333524068197L50,41.00000190734863" marker-end="url(#arrowhead-vee)" id="edge-input" style="stroke: rgb(0, 0, 0); stroke-width: 1px; fill: none;"/><path class="edge-path" d="M50,62.000003814697266L50,63.66667048136393C50,65.3333371480306,50,68.66667048136394,50,72.00000381469727C50,75.3333371480306,50,78.66667048136394,50,80.3333371480306L50,82.00000381469727" marker-end="url(#arrowhead-vee)" id="edge-flatten" style="stroke: rgb(0, 0, 0); stroke-width: 1px; fill: none;"/><path class="edge-path" d="M50,161.00000381469727L50,162.66667048136392C50,164.3333371480306,50,167.66667048136392,50,171.00000381469727C50,174.3333371480306,50,177.66667048136392,50,179.3333371480306L50,181.00000381469727" marker-end="url(#arrowhead-vee)" id="edge-dense" style="stroke: rgb(0, 0, 0); stroke-width: 1px; fill: none;"/><path class="edge-path" d="M50,221.00000381469727L50,222.66667048136392C50,224.3333371480306,50,227.66667048136392,50,231.00000381469727C50,234.3333371480306,50,237.66667048136392,50,239.3333371480306L50,241.00000381469727" marker-end="url(#arrowhead-vee)" id="edge-dropout" style="stroke: rgb(0, 0, 0); stroke-width: 1px; fill: none;"/><path class="edge-path" d="M50,320.00000381469727L50,321.66667048136395C50,323.3333371480306,50,326.66667048136395,50,330.00000381469727C50,333.3333371480306,50,336.66667048136395,50,338.3333371480306L50,340.00000381469727" marker-end="url(#arrowhead-vee)" id="edge-dense_1" style="stroke: rgb(0, 0, 0); stroke-width: 1px; fill: none;"/></g><g id="edge-labels" class="edge-labels"/><g id="nodes" class="nodes"><g id="node-flatten" class="node" transform="translate(50,51.50000286102295)" style="opacity: 1;"><g transform="translate(-24.109375,-10.500000953674316)"><g><g class="node-item node-item-operator node-item-operator-shape" transform="translate(0,0)"><path d="M5,0h38.21875a5,5 0 0 1 5,5v11a5,5 0 0 1 -5,5h-38.21875a5,5 0 0 1 -5,-5v-11a5,5 0 0 1 5,-5z" style="stroke: rgb(0, 0, 0); fill: rgb(108, 79, 71); stroke-width: 0;"/><text x="6" y="15" style="font-family: -apple-system, BlinkMacSystemFont, &quot;Segoe WPC&quot;, &quot;Segoe UI&quot;, Ubuntu, &quot;Droid Sans&quot;, sans-serif; font-size: 11px; text-rendering: geometricprecision; fill: rgb(255, 255, 255);">Flatten</text><title>flatten</title></g><path class="node border" d="M5,0h38.21875a5,5 0 0 1 5,5v11a5,5 0 0 1 -5,5h-38.21875a5,5 0 0 1 -5,-5v-11a5,5 0 0 1 5,-5z" style="stroke: rgb(51, 51, 51); fill: none; stroke-width: 1px;"/></g></g></g><g id="node-dense" class="node" transform="translate(50,121.50000381469727)" style="opacity: 1;"><g transform="translate(-50,-39.5)"><g><g class="node-item node-item-operator node-item-operator-layer" transform="translate(0,0)"><path d="M5,0h90a5,5 0 0 1 5,5v16a0,0 0 0 1 0,0h-100a0,0 0 0 1 0,0v-16a5,5 0 0 1 5,-5z" style="stroke: rgb(0, 0, 0); fill: rgb(51, 85, 136); stroke-width: 0;"/><text x="6" y="15" style="font-family: -apple-system, BlinkMacSystemFont, &quot;Segoe WPC&quot;, &quot;Segoe UI&quot;, Ubuntu, &quot;Droid Sans&quot;, sans-serif; font-size: 11px; text-rendering: geometricprecision; fill: rgb(255, 255, 255);">Dense</text><title>dense</title></g><g class="node-attribute" transform="translate(0,21)"><path d="M0,0h100a0,0 0 0 1 0,0v53a5,5 0 0 1 -5,5h-90a5,5 0 0 1 -5,-5v-53a0,0 0 0 1 0,0z" style="stroke: rgb(0, 0, 0); fill: rgb(255, 255, 255); stroke-width: 0;"/><text id="initializer-sequential/dense/kernel:0" xml:space="preserve" x="6" y="13" style="font-family: -apple-system, BlinkMacSystemFont, &quot;Segoe WPC&quot;, &quot;Segoe UI&quot;, Ubuntu, &quot;Droid Sans&quot;, sans-serif; font-size: 9px; font-weight: normal; text-rendering: geometricprecision;"><title>float32[784,128]</title><tspan style="font-weight: bold;">kernel</tspan><tspan>〈784×128〉</tspan></text><text id="initializer-sequential/dense/bias:0" xml:space="preserve" x="6" y="26" style="font-family: -apple-system, BlinkMacSystemFont, &quot;Segoe WPC&quot;, &quot;Segoe UI&quot;, Ubuntu, &quot;Droid Sans&quot;, sans-serif; font-size: 9px; font-weight: normal; text-rendering: geometricprecision;"><title>float32[128]</title><tspan style="font-weight: bold;">bias</tspan><tspan>〈128〉</tspan></text><text xml:space="preserve" x="6" y="39" style="font-family: -apple-system, BlinkMacSystemFont, &quot;Segoe WPC&quot;, &quot;Segoe UI&quot;, Ubuntu, &quot;Droid Sans&quot;, sans-serif; font-size: 9px; font-weight: normal; text-rendering: geometricprecision;"><tspan>units</tspan><tspan> = 128</tspan></text><text xml:space="preserve" x="6" y="52" style="font-family: -apple-system, BlinkMacSystemFont, &quot;Segoe WPC&quot;, &quot;Segoe UI&quot;, Ubuntu, &quot;Droid Sans&quot;, sans-serif; font-size: 9px; font-weight: normal; text-rendering: geometricprecision;"><tspan>activation</tspan><tspan> = relu</tspan></text><line class="node" x1="0" x2="100" y1="0" y2="0" style="stroke: rgb(51, 51, 51); fill: none; stroke-width: 1px;"/></g><path class="node border" d="M5,0h90a5,5 0 0 1 5,5v69a5,5 0 0 1 -5,5h-90a5,5 0 0 1 -5,-5v-69a5,5 0 0 1 5,-5z" style="stroke: rgb(51, 51, 51); fill: none; stroke-width: 1px;"/></g></g></g><g id="node-dropout" class="node" transform="translate(50,201.00000381469727)" style="opacity: 1;"><g transform="translate(-50,-20)"><g><g class="node-item node-item-operator node-item-operator-dropout" transform="translate(0,0)"><path d="M5,0h90a5,5 0 0 1 5,5v16a0,0 0 0 1 0,0h-100a0,0 0 0 1 0,0v-16a5,5 0 0 1 5,-5z" style="stroke: rgb(0, 0, 0); fill: rgb(69, 71, 112); stroke-width: 0;"/><text x="6" y="15" style="font-family: -apple-system, BlinkMacSystemFont, &quot;Segoe WPC&quot;, &quot;Segoe UI&quot;, Ubuntu, &quot;Droid Sans&quot;, sans-serif; font-size: 11px; text-rendering: geometricprecision; fill: rgb(255, 255, 255);">Dropout</text><title>dropout</title></g><g class="node-attribute" transform="translate(0,21)"><path d="M0,0h100a0,0 0 0 1 0,0v14a5,5 0 0 1 -5,5h-90a5,5 0 0 1 -5,-5v-14a0,0 0 0 1 0,0z" style="stroke: rgb(0, 0, 0); fill: rgb(255, 255, 255); stroke-width: 0;"/><text xml:space="preserve" x="6" y="13" style="font-family: -apple-system, BlinkMacSystemFont, &quot;Segoe WPC&quot;, &quot;Segoe UI&quot;, Ubuntu, &quot;Droid Sans&quot;, sans-serif; font-size: 9px; font-weight: normal; text-rendering: geometricprecision;"><tspan>rate</tspan><tspan> = 0.2</tspan></text><line class="node" x1="0" x2="100" y1="0" y2="0" style="stroke: rgb(51, 51, 51); fill: none; stroke-width: 1px;"/></g><path class="node border" d="M5,0h90a5,5 0 0 1 5,5v30a5,5 0 0 1 -5,5h-90a5,5 0 0 1 -5,-5v-30a5,5 0 0 1 5,-5z" style="stroke: rgb(51, 51, 51); fill: none; stroke-width: 1px;"/></g></g></g><g id="node-dense_1" class="node" transform="translate(50,280.50000381469727)" style="opacity: 1;"><g transform="translate(-50,-39.5)"><g><g class="node-item node-item-operator node-item-operator-layer" transform="translate(0,0)"><path d="M5,0h90a5,5 0 0 1 5,5v16a0,0 0 0 1 0,0h-100a0,0 0 0 1 0,0v-16a5,5 0 0 1 5,-5z" style="stroke: rgb(0, 0, 0); fill: rgb(51, 85, 136); stroke-width: 0;"/><text x="6" y="15" style="font-family: -apple-system, BlinkMacSystemFont, &quot;Segoe WPC&quot;, &quot;Segoe UI&quot;, Ubuntu, &quot;Droid Sans&quot;, sans-serif; font-size: 11px; text-rendering: geometricprecision; fill: rgb(255, 255, 255);">Dense</text><title>dense_1</title></g><g class="node-attribute" transform="translate(0,21)"><path d="M0,0h100a0,0 0 0 1 0,0v53a5,5 0 0 1 -5,5h-90a5,5 0 0 1 -5,-5v-53a0,0 0 0 1 0,0z" style="stroke: rgb(0, 0, 0); fill: rgb(255, 255, 255); stroke-width: 0;"/><text id="initializer-sequential/dense_1/kernel:0" xml:space="preserve" x="6" y="13" style="font-family: -apple-system, BlinkMacSystemFont, &quot;Segoe WPC&quot;, &quot;Segoe UI&quot;, Ubuntu, &quot;Droid Sans&quot;, sans-serif; font-size: 9px; font-weight: normal; text-rendering: geometricprecision;"><title>float32[128,10]</title><tspan style="font-weight: bold;">kernel</tspan><tspan>〈128×10〉</tspan></text><text id="initializer-sequential/dense_1/bias:0" xml:space="preserve" x="6" y="26" style="font-family: -apple-system, BlinkMacSystemFont, &quot;Segoe WPC&quot;, &quot;Segoe UI&quot;, Ubuntu, &quot;Droid Sans&quot;, sans-serif; font-size: 9px; font-weight: normal; text-rendering: geometricprecision;"><title>float32[10]</title><tspan style="font-weight: bold;">bias</tspan><tspan>〈10〉</tspan></text><text xml:space="preserve" x="6" y="39" style="font-family: -apple-system, BlinkMacSystemFont, &quot;Segoe WPC&quot;, &quot;Segoe UI&quot;, Ubuntu, &quot;Droid Sans&quot;, sans-serif; font-size: 9px; font-weight: normal; text-rendering: geometricprecision;"><tspan>units</tspan><tspan> = 10</tspan></text><text xml:space="preserve" x="6" y="52" style="font-family: -apple-system, BlinkMacSystemFont, &quot;Segoe WPC&quot;, &quot;Segoe UI&quot;, Ubuntu, &quot;Droid Sans&quot;, sans-serif; font-size: 9px; font-weight: normal; text-rendering: geometricprecision;"><tspan>activation</tspan><tspan> = softmax</tspan></text><line class="node" x1="0" x2="100" y1="0" y2="0" style="stroke: rgb(51, 51, 51); fill: none; stroke-width: 1px;"/></g><path class="node border" d="M5,0h90a5,5 0 0 1 5,5v69a5,5 0 0 1 -5,5h-90a5,5 0 0 1 -5,-5v-69a5,5 0 0 1 5,-5z" style="stroke: rgb(51, 51, 51); fill: none; stroke-width: 1px;"/></g></g></g><g class="node graph-input" transform="translate(50,10.500000953674316)" style="opacity: 1;"><g transform="translate(-19.578125,-10.500000953674316)"><g><g class="node-item graph-item-input" transform="translate(0,0)"><path d="M5,0h29.15625a5,5 0 0 1 5,5v11a5,5 0 0 1 -5,5h-29.15625a5,5 0 0 1 -5,-5v-11a5,5 0 0 1 5,-5z" style="stroke: rgb(0, 0, 0); fill: rgb(238, 238, 238); stroke-width: 0;"/><text x="6" y="15" style="font-family: -apple-system, BlinkMacSystemFont, &quot;Segoe WPC&quot;, &quot;Segoe UI&quot;, Ubuntu, &quot;Droid Sans&quot;, sans-serif; font-size: 11px; text-rendering: geometricprecision;">input</text><title>float32[]</title></g><path class="node border" d="M5,0h29.15625a5,5 0 0 1 5,5v11a5,5 0 0 1 -5,5h-29.15625a5,5 0 0 1 -5,-5v-11a5,5 0 0 1 5,-5z" style="stroke: rgb(51, 51, 51); fill: none; stroke-width: 1px;"/></g></g></g><g class="node" transform="translate(50,350.5000047683716)" style="opacity: 1;"><g transform="translate(-26.3359375,-10.500000953674316)"><g><g class="node-item graph-item-output" transform="translate(0,0)"><path d="M5,0h42.671875a5,5 0 0 1 5,5v11a5,5 0 0 1 -5,5h-42.671875a5,5 0 0 1 -5,-5v-11a5,5 0 0 1 5,-5z" style="stroke: rgb(0, 0, 0); fill: rgb(238, 238, 238); stroke-width: 0;"/><text x="6" y="15" style="font-family: -apple-system, BlinkMacSystemFont, &quot;Segoe WPC&quot;, &quot;Segoe UI&quot;, Ubuntu, &quot;Droid Sans&quot;, sans-serif; font-size: 11px; text-rendering: geometricprecision;">dense_1</text></g><path class="node border" d="M5,0h42.671875a5,5 0 0 1 5,5v11a5,5 0 0 1 -5,5h-42.671875a5,5 0 0 1 -5,-5v-11a5,5 0 0 1 5,-5z" style="stroke: rgb(51, 51, 51); fill: none; stroke-width: 1px;"/></g></g></g></g></g></svg>